<svg width="28.000000" height="12.000000" viewBox="0 0 28 12" fill="none" xmlns="http://www.w3.org/2000/svg" xmlns:xlink="http://www.w3.org/1999/xlink">
	<desc>
			Created with Pixso.
	</desc>
	<defs>
		<clipPath id="clip76_16">
			<rect id="formkit:down" rx="-0.500000" width="27.000000" height="11.000000" transform="translate(0.500000 0.500000)" fill="white" fill-opacity="0"/>
		</clipPath>
	</defs>
	<rect id="formkit:down" rx="-0.500000" width="27.000000" height="11.000000" transform="translate(0.500000 0.500000)" fill="#FFFFFF" fill-opacity="0"/>
	<g clip-path="url(#clip76_16)">
		<path id="Vector" d="M11.86 11.44C11.74 11.44 11.63 11.42 11.52 11.38C11.42 11.33 11.32 11.27 11.24 11.18L3.37 3.47C3.02 3.13 3.02 2.59 3.37 2.25C3.72 1.91 4.26 1.91 4.61 2.25L11.87 9.37L19.12 2.27C19.47 1.93 20.01 1.93 20.36 2.27C20.71 2.61 20.71 3.14 20.36 3.49L12.48 11.2C12.31 11.37 12.08 11.46 11.87 11.46L11.86 11.44Z" fill="#000000" fill-opacity="1.000000" fill-rule="nonzero"/>
	</g>
</svg>
