<svg width="18.000000" height="18.000000" viewBox="0 0 18 18" fill="none" xmlns="http://www.w3.org/2000/svg" xmlns:xlink="http://www.w3.org/1999/xlink">
	<desc>
			Created with Pixso.
	</desc>
	<defs/>
	<path id="Vector" d="M9 0C4.02 0 0 4.02 0 9C0 13.97 4.02 18 9 18C13.97 18 18 13.97 18 9C18 4.02 13.97 0 9 0ZM9 16.49C4.85 16.49 1.5 13.14 1.5 9C1.5 4.85 4.85 1.5 9 1.5C13.14 1.5 16.49 4.85 16.49 9C16.49 13.14 13.14 16.49 9 16.49ZM8.25 8.25L4.5 8.25L4.5 9.75L9.74 9.75L9.74 3L8.24 3L8.24 8.25L8.25 8.25Z" fill="#000000" fill-opacity="1.000000" fill-rule="nonzero"/>
</svg>
