<svg width="20.000000" height="20.000000" viewBox="0 0 20 20" fill="none" xmlns="http://www.w3.org/2000/svg" xmlns:xlink="http://www.w3.org/1999/xlink">
	<desc>
			Created with Pixso.
	</desc>
	<defs>
		<clipPath id="clip76_29">
			<rect id="mingcute:location-3-fill" rx="-0.500000" width="19.000000" height="19.000000" transform="translate(0.500000 0.500000)" fill="white" fill-opacity="0"/>
		</clipPath>
	</defs>
	<rect id="mingcute:location-3-fill" rx="-0.500000" width="19.000000" height="19.000000" transform="translate(0.500000 0.500000)" fill="#FFFFFF" fill-opacity="0"/>
	<g clip-path="url(#clip76_29)">
		<path id="Vector" d="M14.62 13.42C14.81 13.33 15.02 13.31 15.21 13.36C15.41 13.41 15.58 13.53 15.69 13.71L15.74 13.79L17.41 17.12C17.47 17.24 17.5 17.37 17.5 17.51C17.49 17.64 17.46 17.77 17.4 17.89C17.34 18.01 17.25 18.11 17.14 18.18C17.03 18.26 16.9 18.31 16.77 18.32L16.66 18.33L3.33 18.33C3.2 18.33 3.07 18.3 2.95 18.24C2.83 18.18 2.73 18.09 2.65 17.98C2.57 17.87 2.52 17.75 2.5 17.61C2.49 17.48 2.5 17.35 2.54 17.22L2.58 17.12L4.25 13.79C4.34 13.6 4.51 13.45 4.71 13.37C4.91 13.3 5.13 13.3 5.33 13.39C5.53 13.47 5.68 13.63 5.77 13.83C5.85 14.02 5.86 14.25 5.78 14.45L5.74 14.54L4.68 16.66L15.31 16.66L14.25 14.54C14.15 14.34 14.14 14.11 14.21 13.9C14.28 13.69 14.43 13.52 14.62 13.42ZM10 1.66C11.54 1.66 13.03 2.28 14.12 3.37C15.22 4.47 15.83 5.95 15.83 7.5C15.83 9.48 14.76 11.09 13.64 12.24C13.03 12.86 12.35 13.42 11.63 13.91L11.32 14.12L11.04 14.29C11 14.32 10.96 14.34 10.92 14.37L10.7 14.49C10.26 14.74 9.73 14.74 9.29 14.49L9.08 14.36L8.82 14.21C8.77 14.18 8.72 14.15 8.67 14.12L8.36 13.91C7.64 13.42 6.96 12.86 6.35 12.24C5.24 11.09 4.16 9.48 4.16 7.5C4.16 5.95 4.78 4.47 5.87 3.37C6.97 2.28 8.45 1.66 10 1.66ZM10 5.83C9.55 5.83 9.13 6.01 8.82 6.32C8.51 6.63 8.33 7.05 8.33 7.5C8.33 7.94 8.51 8.36 8.82 8.67C9.13 8.99 9.55 9.16 10 9.16C10.44 9.16 10.86 8.99 11.17 8.67C11.49 8.36 11.66 7.94 11.66 7.5C11.66 7.05 11.49 6.63 11.17 6.32C10.86 6.01 10.44 5.83 10 5.83Z" fill="#000000" fill-opacity="1.000000" fill-rule="evenodd"/>
	</g>
</svg>
